HIERARCHY
ROOT Hips
{
    OFFSET 0.000000 0.000000 0.000000
    CHANNELS 6 Xposition Yposition Zposition Zrotation Xrotation Yrotation
    JOINT Spine
    {
        OFFSET 0.000002 7.164412 0.000002
        CHANNELS 3 Zrotation Xrotation Yrotation
        JOINT Spine1
        {
            OFFSET -0.000001 20.126801 -0.000002
            CHANNELS 3 Zrotation Xrotation Yrotation
            JOINT Neck
            {
                OFFSET 0.000000 21.094069 0.000000
                CHANNELS 3 Zrotation Xrotation Yrotation
                JOINT Head
                {
                    OFFSET -0.000001 12.838277 1.776080
                    CHANNELS 3 Zrotation Xrotation Yrotation
                    End Site
                    {
                        OFFSET 0.000000 17.760757 0.000000
                    }
                }
            }
            JOINT LeftShoulder
            {
                OFFSET 3.550527 15.465700 -0.908803
                CHANNELS 3 Zrotation Xrotation Yrotation
                JOINT LeftArm
                {
                    OFFSET 12.513296 -0.000006 -0.000002
                    CHANNELS 3 Zrotation Xrotation Yrotation
                    JOINT LeftForeArm
                    {
                        OFFSET 24.225996 -0.000003 0.000001
                        CHANNELS 3 Zrotation Xrotation Yrotation
                        JOINT LeftHand
                        {
                            OFFSET 20.711399 -0.000005 -0.000004
                            CHANNELS 3 Zrotation Xrotation Yrotation
                            JOINT LeftHandThumb1
                            {
                                OFFSET 2.121969 -2.411331 3.375859
                                CHANNELS 3 Zrotation Xrotation Yrotation
                                JOINT LeftHandThumb2
                                {
                                    OFFSET 2.803208 0.000003 0.000001
                                    CHANNELS 3 Zrotation Xrotation Yrotation
                                    JOINT LeftHandThumb3
                                    {
                                        OFFSET 2.395929 0.000004 -0.000003
                                        CHANNELS 3 Zrotation Xrotation Yrotation
                                        End Site
                                        {
                                            OFFSET 2.127676 0.000000 0.000000
                                        }
                                    }
                                }
                            }
                            JOINT LeftHandIndex1
                            {
                                OFFSET 8.680775 0.000005 3.375860
                                CHANNELS 3 Zrotation Xrotation Yrotation
                                JOINT LeftHandIndex2
                                {
                                    OFFSET 4.218178 -0.000000 -0.000000
                                    CHANNELS 3 Zrotation Xrotation Yrotation
                                    JOINT LeftHandIndex3
                                    {
                                        OFFSET 2.109086 -0.000004 0.000002
                                        CHANNELS 3 Zrotation Xrotation Yrotation
                                        End Site
                                        {
                                            OFFSET 1.872952 0.000000 0.000000
                                        }
                                    }
                                }
                            }
                            JOINT LeftHandMiddle1
                            {
                                OFFSET 8.680778 -0.000002 1.118860
                                CHANNELS 3 Zrotation Xrotation Yrotation
                                JOINT LeftHandMiddle2
                                {
                                    OFFSET 4.640003 -0.000004 -0.000001
                                    CHANNELS 3 Zrotation Xrotation Yrotation
                                    JOINT LeftHandMiddle3
                                    {
                                        OFFSET 2.530911 0.000002 -0.000001
                                        CHANNELS 3 Zrotation Xrotation Yrotation
                                        End Site
                                        {
                                            OFFSET 2.247544 0.000000 0.000000
                                        }
                                    }
                                }
                            }
                            JOINT LeftHandRing1
                            {
                                OFFSET 8.198517 0.000004 -1.118860
                                CHANNELS 3 Zrotation Xrotation Yrotation
                                JOINT LeftHandRing2
                                {
                                    OFFSET 4.218183 -0.000002 -0.000002
                                    CHANNELS 3 Zrotation Xrotation Yrotation
                                    JOINT LeftHandRing3
                                    {
                                        OFFSET 2.109094 0.000005 -0.000000
                                        CHANNELS 3 Zrotation Xrotation Yrotation
                                        End Site
                                        {
                                            OFFSET 1.872952 0.000000 0.000000
                                        }
                                    }
                                }
                            }
                            JOINT LeftHandPinky1
                            {
                                OFFSET 7.716254 0.000002 -3.375863
                                CHANNELS 3 Zrotation Xrotation Yrotation
                                JOINT LeftHandPinky2
                                {
                                    OFFSET 3.374536 0.000002 0.000001
                                    CHANNELS 3 Zrotation Xrotation Yrotation
                                    JOINT LeftHandPinky3
                                    {
                                        OFFSET 1.687274 -0.000002 -0.000004
                                        CHANNELS 3 Zrotation Xrotation Yrotation
                                        End Site
                                        {
                                            OFFSET 1.498360 0.000000 0.000000
                                        }
                                    }
                                }
                            }
                        }
                    }
                }
            }
            JOINT RightShoulder
            {
                OFFSET -3.550529 15.465699 -0.908801
                CHANNELS 3 Zrotation Xrotation Yrotation
                JOINT RightArm
                {
                    OFFSET -12.513299 -0.000001 -0.000000
                    CHANNELS 3 Zrotation Xrotation Yrotation
                    JOINT RightForeArm
                    {
                        OFFSET -24.226000 -0.000003 -0.000001
                        CHANNELS 3 Zrotation Xrotation Yrotation
                        JOINT RightHand
                        {
                            OFFSET -20.711397 -0.000003 -0.000002
                            CHANNELS 3 Zrotation Xrotation Yrotation
                            JOINT RightHandThumb1
                            {
                                OFFSET -2.121970 -2.411331 3.375859
                                CHANNELS 3 Zrotation Xrotation Yrotation
                                JOINT RightHandThumb2
                                {
                                    OFFSET -2.803209 -0.000004 0.000004
                                    CHANNELS 3 Zrotation Xrotation Yrotation
                                    JOINT RightHandThumb3
                                    {
                                        OFFSET -2.395928 0.000004 -0.000003
                                        CHANNELS 3 Zrotation Xrotation Yrotation
                                        End Site
                                        {
                                            OFFSET -2.127676 0.000000 0.000000
                                        }
                                    }
                                }
                            }
                            JOINT RightHandIndex1
                            {
                                OFFSET -8.680779 0.000001 3.375859
                                CHANNELS 3 Zrotation Xrotation Yrotation
                                JOINT RightHandIndex2
                                {
                                    OFFSET -4.218179 0.000003 -0.000001
                                    CHANNELS 3 Zrotation Xrotation Yrotation
                                    JOINT RightHandIndex3
                                    {
                                        OFFSET -2.109090 -0.000002 0.000000
                                        CHANNELS 3 Zrotation Xrotation Yrotation
                                        End Site
                                        {
                                            OFFSET -1.872952 0.000000 0.000000
                                        }
                                    }
                                }
                            }
                            JOINT RightHandMiddle1
                            {
                                OFFSET -8.680779 -0.000002 1.118859
                                CHANNELS 3 Zrotation Xrotation Yrotation
                                JOINT RightHandMiddle2
                                {
                                    OFFSET -4.639998 0.000003 -0.000001
                                    CHANNELS 3 Zrotation Xrotation Yrotation
                                    JOINT RightHandMiddle3
                                    {
                                        OFFSET -2.530910 -0.000000 -0.000000
                                        CHANNELS 3 Zrotation Xrotation Yrotation
                                        End Site
                                        {
                                            OFFSET -2.247544 0.000000 0.000000
                                        }
                                    }
                                }
                            }
                            JOINT RightHandRing1
                            {
                                OFFSET -8.198519 -0.000004 -1.118859
                                CHANNELS 3 Zrotation Xrotation Yrotation
                                JOINT RightHandRing2
                                {
                                    OFFSET -4.218180 -0.000005 0.000000
                                    CHANNELS 3 Zrotation Xrotation Yrotation
                                    JOINT RightHandRing3
                                    {
                                        OFFSET -2.109090 0.000002 0.000002
                                        CHANNELS 3 Zrotation Xrotation Yrotation
                                        End Site
                                        {
                                            OFFSET -1.872952 0.000000 0.000000
                                        }
                                    }
                                }
                            }
                            JOINT RightHandPinky1
                            {
                                OFFSET -7.716249 0.000004 -3.375858
                                CHANNELS 3 Zrotation Xrotation Yrotation
                                JOINT RightHandPinky2
                                {
                                    OFFSET -3.374539 0.000003 -0.000000
                                    CHANNELS 3 Zrotation Xrotation Yrotation
                                    JOINT RightHandPinky3
                                    {
                                        OFFSET -1.687270 -0.000004 -0.000001
                                        CHANNELS 3 Zrotation Xrotation Yrotation
                                        End Site
                                        {
                                            OFFSET -1.498360 0.000000 0.000000
                                        }
                                    }
                                }
                            }
                        }
                    }
                }
            }
        }
    }
    JOINT LeftUpLeg
    {
        OFFSET 8.880377 0.000003 0.000001
        CHANNELS 3 Zrotation Xrotation Yrotation
        JOINT LeftLeg
        {
            OFFSET -0.000000 -40.387413 0.000001
            CHANNELS 3 Zrotation Xrotation Yrotation
            JOINT LeftFoot
            {
                OFFSET -0.000000 -36.911304 0.000000
                CHANNELS 3 Zrotation Xrotation Yrotation
                JOINT LeftToeBase
                {
                    OFFSET 0.000003 -5.772240 13.320597
                    CHANNELS 3 Zrotation Xrotation Yrotation
                    End Site
                    {
                        OFFSET 0.000000 0.000000 3.552151
                    }
                }
            }
        }
    }
    JOINT RightUpLeg
    {
        OFFSET -8.880380 -0.000003 -0.000001
        CHANNELS 3 Zrotation Xrotation Yrotation
        JOINT RightLeg
        {
            OFFSET 0.000001 -40.387405 0.000000
            CHANNELS 3 Zrotation Xrotation Yrotation
            JOINT RightFoot
            {
                OFFSET -0.000001 -36.911304 -0.000001
                CHANNELS 3 Zrotation Xrotation Yrotation
                JOINT RightToeBase
                {
                    OFFSET 0.000000 -5.772241 13.320600
                    CHANNELS 3 Zrotation Xrotation Yrotation
                    End Site
                    {
                        OFFSET 0.000000 0.000000 3.552151
                    }
                }
            }
        }
    }
}
MOTION
Frames: 5
Frame Time: 0.013889
55.629494    80.337677    -8.296495    -7.435089    1.528089    -1.350818    1.640967    -9.599008    9.748313    -9.304097    13.866741    11.631696    -11.540524    -17.225140    -17.414711    5.967582    9.127926    -15.345279    -2.841099    4.542882    -9.753030    -10.909593    46.457481    -29.007889    -21.247736    -6.005298    -74.940483    -12.262866    47.952183    -7.488974    5.574485    67.952972    -55.740749    -15.330571    -1.474069    23.273432    -0.000000    0.000000    -0.000000    -31.202101    15.531560    -14.494572    -29.943150    -0.000000    0.000002    -29.943174    0.000004    -0.000001    -12.253163    8.798222    -9.950711    -12.106792    -0.000003    0.000000    -12.106785    0.000003    0.000002    -3.228266    -8.985952    -6.234326    -3.188606    0.000000    -0.000004    -3.188602    0.000003    0.000001    6.022320    -17.906979    -9.601259    5.729579    -0.000000    -0.000000    5.729574    -0.000004    -0.000007    -6.153263    -1.087829    17.755211    29.687063    36.149902    67.175636    -25.004370    4.147086    81.186264    -59.135845    8.053399    27.879292    -37.783127    28.242628    48.647182    13.701829    -0.773067    -23.305365    -0.000000    0.000000    -0.000000    -6.022315    17.906971    1.330719    -5.729584    0.000001    -0.000000    -5.729577    -0.000000    0.000000    -5.800513    8.954671    0.642300    -5.729586    0.000000    0.000001    -5.729577    -0.000000    -0.000000    -5.800514    -8.954673    3.992633    -5.729580    -0.000002    -0.000001    -5.729584    -0.000000    0.000003    -6.022324    -17.906975    7.939148    -5.729580    -0.000002    0.000002    -5.729579    0.000003    0.000001    9.936563    -15.023126    2.732673    0.000001    41.003506    -0.000000    7.565130    -18.174559    4.799335    0.000001    1.567925    0.000001    12.692111    -36.053791    0.472472    -0.000001    67.896179    0.000001    4.376277    11.876277    -9.430593    0.000001    1.106544    -0.000001    
55.526382    80.221802    -8.258743    -7.248978    1.612743    -1.620068    1.656611    -9.616360    9.822240    -9.336884    13.860089    11.709795    -12.056116    -17.104074    -17.428020    5.838394    9.165060    -15.176663    -3.042025    4.505946    -9.747368    -11.097548    46.329773    -28.741777    -21.423767    -6.079671    -74.894463    -12.367341    48.525146    -7.476059    7.597778    68.288818    -58.819580    -15.248569    -1.438809    23.275513    -0.000000    0.000000    -0.000000    -31.094345    15.548363    -14.517004    -29.837982    -0.000003    -0.000003    -29.837975    0.000002    0.000006    -12.199985    8.799961    -9.955628    -12.054199    0.000004    -0.000002    -12.054199    0.000007    0.000001    -3.201650    -8.986192    -6.230168    -3.162308    0.000003    -0.000002    -3.162313    0.000003    0.000000    6.022322    -17.906975    -9.601259    5.729578    -0.000004    -0.000002    5.729581    0.000004    0.000002    -6.247061    -0.956340    17.772461    29.293070    36.560795    67.333420    -24.716904    4.448483    80.435379    -58.948215    7.924418    28.108038    -37.705055    28.305573    48.661613    13.757857    -0.797197    -23.304604    -0.000000    0.000000    -0.000000    -6.022319    17.906973    1.469831    -5.729586    -0.000000    0.000001    -5.729576    0.000000    0.000000    -5.800514    8.954670    0.711858    -5.729571    -0.000000    -0.000001    -5.729585    0.000001    0.000001    -5.800517    -8.954671    4.002043    -5.729579    -0.000001    -0.000003    -5.729579    -0.000001    0.000002    -6.022321    -17.906975    7.957963    -5.729583    -0.000000    0.000001    -5.729586    0.000002    0.000003    9.857376    -15.177032    2.902221    0.000000    41.368057    -0.000000    7.680583    -18.296589    5.014234    -0.000002    1.496589    -0.000001    12.257692    -36.501938    0.369991    0.000000    68.592812    -0.000001    4.540923    10.823132    -8.674191    -0.000001    2.466313    0.000001    
55.392109    80.056641    -8.209650    -6.938452    1.780507    -1.902781    1.684603    -9.702817    9.898602    -9.390360    13.869402    11.795500    -12.800557    -16.860828    -17.453829    5.619992    9.232117    -14.945848    -3.385668    4.525580    -9.693083    -11.339218    46.170834    -28.476351    -21.530043    -6.209143    -74.668861    -11.483041    49.338444    -8.140468    8.546721    68.141357    -60.039555    -15.033332    -1.346236    23.280745    -0.000000    0.000000    -0.000000    -30.868982    15.583344    -14.709325    -29.618092    -0.000003    -0.000001    -29.618092    -0.000001    0.000009    -12.088788    8.803583    -10.038564    -11.944259    0.000000    0.000000    -11.944263    -0.000010    -0.000001    -3.145992    -8.986661    -6.221476    -3.107342    0.000000    -0.000001    -3.107340    -0.000000    0.000002    6.022321    -17.906981    -9.601260    5.729581    0.000007    -0.000002    5.729578    -0.000000    -0.000004    -6.381008    -0.757012    17.763832    28.768259    37.110821    67.511581    -24.372131    4.855330    79.417458    -58.605598    7.867195    28.372887    -37.598328    28.392288    48.679546    13.831637    -0.828973    -23.303549    -0.000000    0.000000    -0.000000    -6.022325    17.906977    1.659386    -5.729578    0.000001    0.000003    -5.729578    0.000000    -0.000002    -5.800519    8.954672    0.806637    -5.729582    0.000000    -0.000000    -5.729585    0.000000    0.000001    -5.800516    -8.954675    4.025630    -5.729578    0.000001    -0.000002    -5.729583    -0.000002    0.000003    -6.022324    -17.906979    8.005145    -5.729572    0.000000    -0.000003    -5.729578    -0.000000    0.000003    9.703784    -15.462344    3.098230    -0.000000    41.846088    0.000000    7.677058    -18.474783    5.160393    -0.000001    1.417170    -0.000000    11.408915    -37.097458    0.065082    -0.000001    69.749550    0.000000    4.420805    7.373916    -7.549816    -0.000001    3.699662    0.000000    
55.306904    79.923454    -8.165635    -6.667220    1.913702    -2.026862    1.699184    -9.780187    9.905960    -9.398803    13.893567    11.805287    -13.431143    -16.701824    -17.473116    5.412793    9.231381    -14.736859    -3.533826    4.597087    -9.697433    -11.246771    46.172054    -28.502378    -21.427181    -6.241178    -74.516304    -10.478742    49.431160    -8.876595    6.440253    67.493256    -56.566471    -14.824823    -1.256534    23.285482    -0.000000    0.000000    -0.000000    -30.859632    15.584789    -15.027074    -29.608963    -0.000004    0.000001    -29.608955    0.000010    0.000008    -12.084164    8.803735    -10.196887    -11.939691    -0.000007    0.000000    -11.939686    -0.000003    -0.000002    -3.143683    -8.986684    -6.221116    -3.105053    0.000004    -0.000005    -3.105056    0.000000    0.000000    6.022321    -17.906973    -9.601260    5.729577    -0.000003    0.000000    5.729578    0.000010    -0.000007    -6.499863    -0.575803    17.764273    28.391020    37.509830    67.603027    -24.128223    5.154326    78.658607    -58.426041    7.914966    28.582838    -37.523445    28.446308    48.716152    13.881281    -0.850355    -23.302834    -0.000000    0.000000    -0.000000    -6.022316    17.906971    1.796629    -5.729591    0.000001    0.000001    -5.729580    0.000000    -0.000001    -5.800509    8.954670    0.875255    -5.729580    -0.000000    0.000001    -5.729584    0.000001    0.000000    -5.800508    -8.954668    4.051187    -5.729584    -0.000001    0.000003    -5.729577    -0.000001    -0.000003    -6.022319    -17.906971    8.056257    -5.729587    0.000002    0.000003    -5.729580    -0.000003    -0.000002    9.533781    -15.725371    3.208606    0.000000    42.247795    0.000000    7.617245    -18.647802    5.214927    0.000001    1.353139    0.000000    10.492232    -37.559544    -0.270969    -0.000001    70.564697    0.000002    4.380195    5.347476    -6.431717    0.000001    4.391967    -0.000000    
55.215603    79.795853    -8.125069    -6.380805    2.052003    -2.113952    1.712457    -9.845049    9.918008    -9.440258    13.893689    11.825861    -13.996638    -16.504429    -17.490301    5.237701    9.226709    -14.561084    -3.759309    4.580916    -9.615903    -11.075222    46.137589    -28.635046    -21.128016    -6.180735    -74.431358    -10.827572    49.021988    -8.518270    4.046144    66.830887    -52.647671    -14.656426    -1.184072    23.289072    -0.000000    0.000000    -0.000000    -30.950296    15.570757    -15.396971    -29.697414    0.000004    -0.000002    -29.697451    -0.000016    0.000006    -12.128904    8.802296    -10.387169    -11.983920    -0.000003    -0.000005    -11.983924    -0.000000    0.000003    -3.166072    -8.986495    -6.224618    -3.127167    0.000007    -0.000002    -3.127172    -0.000003    0.000001    6.022321    -17.906971    -9.601260    5.729580    0.000007    -0.000001    5.729578    0.000000    0.000004    -6.626100    -0.360814    17.737898    28.111525    37.947826    67.647575    -23.595112    5.348366    77.953682    -58.208233    8.250260    28.540356    -37.501007    28.416588    48.886005    13.899205    -0.858070    -23.302565    -0.000000    0.000000    -0.000000    -6.022319    17.906973    2.020852    -5.729572    -0.000002    0.000000    -5.729576    0.000000    -0.000001    -5.800514    8.954672    0.987367    -5.729579    -0.000000    0.000000    -5.729583    0.000001    -0.000001    -5.800513    -8.954669    4.097956    -5.729573    0.000000    -0.000004    -5.729579    -0.000002    -0.000000    -6.022322    -17.906973    8.149789    -5.729576    0.000000    -0.000002    -5.729586    -0.000002    0.000003    9.356272    -16.014278    3.275377    0.000000    42.637665    -0.000000    7.512741    -18.743036    5.220870    0.000000    1.309374    -0.000001    9.404443    -38.030548    -0.613251    0.000001    71.311867    -0.000001    4.228641    3.796281    -5.150420    0.000000    4.697227    -0.000001    
